%TF.GenerationSoftware,KiCad,Pcbnew,8.0.5*%
%TF.CreationDate,2025-01-17T14:10:45+05:30*%
%TF.ProjectId,VSD_FM_SHIELD,5653445f-464d-45f5-9348-49454c442e6b,rev?*%
%TF.SameCoordinates,Original*%
%TF.FileFunction,Soldermask,Top*%
%TF.FilePolarity,Negative*%
%FSLAX46Y46*%
G04 Gerber Fmt 4.6, Leading zero omitted, Abs format (unit mm)*
G04 Created by KiCad (PCBNEW 8.0.5) date 2025-01-17 14:10:45*
%MOMM*%
%LPD*%
G01*
G04 APERTURE LIST*
%ADD10R,1.400000X1.600000*%
%ADD11R,2.000000X4.500000*%
%ADD12R,1.700000X1.700000*%
%ADD13O,1.700000X1.700000*%
G04 APERTURE END LIST*
D10*
%TO.C,SW6*%
X107514000Y-93662000D03*
X107514000Y-85662000D03*
X112014000Y-93662000D03*
X112014000Y-85662000D03*
%TD*%
%TO.C,SW5*%
X119924000Y-93916000D03*
X119924000Y-85916000D03*
X124424000Y-93916000D03*
X124424000Y-85916000D03*
%TD*%
%TO.C,SW4*%
X97826000Y-105156000D03*
X97826000Y-97156000D03*
X102326000Y-105156000D03*
X102326000Y-97156000D03*
%TD*%
%TO.C,SW1*%
X107478000Y-105156000D03*
X107478000Y-97156000D03*
X111978000Y-105156000D03*
X111978000Y-97156000D03*
%TD*%
D11*
%TO.C,U2*%
X144268000Y-83016000D03*
X141728000Y-83016000D03*
X139188000Y-83016000D03*
X136648000Y-83016000D03*
X134108000Y-83016000D03*
X134108000Y-106976000D03*
X136648000Y-106976000D03*
X139188000Y-106976000D03*
X141728000Y-106976000D03*
X144268000Y-106976000D03*
X146808000Y-106976000D03*
%TD*%
D10*
%TO.C,SW3*%
X102326000Y-85662000D03*
X102326000Y-93662000D03*
X97826000Y-85662000D03*
X97826000Y-93662000D03*
%TD*%
%TO.C,SW2*%
X124424000Y-97156000D03*
X124424000Y-105156000D03*
X119924000Y-97156000D03*
X119924000Y-105156000D03*
%TD*%
D12*
%TO.C,U1*%
X94503000Y-107696000D03*
D13*
X97043000Y-107696000D03*
X99583000Y-107696000D03*
X102123000Y-107696000D03*
X104663000Y-107696000D03*
X107203000Y-107696000D03*
X109743000Y-107696000D03*
X112283000Y-107696000D03*
D12*
X116078000Y-103886000D03*
D13*
X116078000Y-101346000D03*
X116078000Y-98806000D03*
X116078000Y-96266000D03*
X116078000Y-93726000D03*
X116078000Y-91186000D03*
X116078000Y-88646000D03*
X116078000Y-86106000D03*
D12*
X112268000Y-82296000D03*
D13*
X109728000Y-82296000D03*
X107188000Y-82296000D03*
X104648000Y-82296000D03*
X102108000Y-82296000D03*
X99568000Y-82296000D03*
X97028000Y-82296000D03*
X94488000Y-82296000D03*
D12*
X90678000Y-86106000D03*
D13*
X90678000Y-88646000D03*
X90678000Y-91186000D03*
X90678000Y-93726000D03*
X90678000Y-96266000D03*
X90678000Y-98806000D03*
X90678000Y-101346000D03*
X90678000Y-103886000D03*
D12*
X119888000Y-82296000D03*
D13*
X122428000Y-82296000D03*
X124968000Y-82296000D03*
X127508000Y-82296000D03*
%TD*%
M02*
